<?xml version="1.0" encoding="UTF-8" ?>
<!DOCTYPE svg PUBLIC "-//W3C//DTD SVG 1.1//EN" "http://www.w3.org/Graphics/SVG/1.1/DTD/svg11.dtd">
<svg width="344pt" height="356pt" viewBox="0 0 344 356" version="1.1" xmlns="http://www.w3.org/2000/svg">
<g id="#f7f7f7ff">
</g>
<g id="#60dea1ff">
<path fill="#60dea1" opacity="1.00" d=" M 135.13 6.69 C 146.86 3.77 158.92 2.17 171.02 2.17 C 205.10 1.35 239.00 12.06 267.47 30.55 C 284.44 42.20 299.71 56.46 311.75 73.20 C 323.37 88.94 331.48 107.04 337.10 125.71 C 339.99 136.31 341.72 147.18 344.00 157.92 L 344.00 189.68 C 340.57 189.16 337.09 189.18 333.66 188.78 C 333.82 177.93 334.16 167.06 333.41 156.22 C 332.33 146.30 330.05 136.55 327.25 126.99 C 318.27 96.19 299.74 68.26 274.63 48.26 C 245.78 24.44 208.37 11.40 170.98 11.82 C 159.41 12.15 147.92 13.75 136.51 15.60 C 136.05 12.63 135.59 9.66 135.13 6.69 Z" />
<path fill="#60dea1" opacity="1.00" d=" M 139.18 22.87 C 182.92 12.99 230.89 23.44 266.22 51.12 C 266.30 54.20 263.27 56.58 261.32 58.78 C 254.14 54.74 247.59 49.68 240.26 45.89 C 225.69 37.75 209.43 33.06 193.01 30.48 C 184.41 29.05 175.65 29.13 166.96 29.32 C 157.98 29.40 149.15 31.19 140.20 31.75 C 139.84 28.79 139.50 25.83 139.18 22.87 Z" />
<path fill="#60dea1" opacity="1.00" d=" M 55.95 47.96 C 66.34 38.64 77.42 29.75 90.27 24.05 C 91.51 26.68 92.72 29.33 93.93 31.98 C 81.98 39.33 70.40 47.40 60.55 57.46 C 40.26 76.42 25.74 101.17 17.91 127.73 C 15.56 136.53 13.40 145.40 12.10 154.42 C 9.11 154.41 6.13 154.39 3.14 154.36 C 5.85 122.49 18.80 91.69 38.85 66.83 C 43.91 59.99 49.96 53.98 55.95 47.96 Z" />
<path fill="#60dea1" opacity="1.00" d=" M 156.42 37.79 C 174.96 35.37 193.93 37.27 211.85 42.46 C 239.24 50.76 264.06 67.71 281.39 90.54 C 299.25 114.08 309.32 143.44 309.39 173.01 C 309.35 200.92 300.74 228.81 284.69 251.68 C 266.74 277.49 239.58 296.88 209.15 304.97 C 183.52 312.37 155.77 311.42 130.42 303.36 C 103.42 294.16 78.79 277.06 62.31 253.60 C 46.81 232.99 38.20 207.61 36.36 182.00 C 34.40 150.63 43.45 118.56 62.14 93.23 C 66.45 87.86 70.28 82.04 75.22 77.21 C 83.10 70.31 90.93 63.24 99.95 57.82 C 116.95 46.99 136.44 40.25 156.42 37.79 M 85.44 85.46 C 85.15 94.43 85.83 103.44 87.73 112.22 C 92.89 133.13 106.82 151.77 125.61 162.37 C 133.53 166.37 141.73 170.25 150.57 171.67 C 157.84 172.76 165.25 173.90 172.57 172.49 C 172.95 170.38 173.33 168.26 173.66 166.14 C 175.27 168.29 176.61 170.82 178.92 172.32 C 182.28 173.95 186.10 172.78 189.59 172.27 C 192.00 169.70 194.43 166.68 194.13 162.91 C 194.57 157.29 188.95 153.53 183.98 152.82 C 179.67 152.59 176.18 155.86 174.33 159.47 C 169.73 157.75 164.81 157.60 159.97 157.47 C 150.57 156.41 141.17 153.92 133.08 148.88 C 118.39 140.61 107.56 126.10 102.99 109.95 C 100.46 102.29 100.93 94.12 100.47 86.18 C 95.55 84.86 90.45 85.52 85.44 85.46 M 106.50 85.46 C 102.39 110.90 118.21 137.43 141.72 147.32 C 151.33 152.04 162.38 153.57 172.95 151.97 C 173.00 148.41 173.10 144.86 173.17 141.30 C 178.30 142.21 183.58 142.24 188.61 143.68 C 194.42 145.78 199.78 149.86 202.12 155.74 C 204.97 161.12 204.93 167.28 205.04 173.20 C 209.94 173.22 214.83 173.13 219.73 172.91 C 221.83 159.72 217.11 145.68 207.04 136.84 C 197.79 129.14 185.00 124.78 173.09 128.00 C 173.16 125.46 173.18 122.92 173.16 120.37 C 179.88 122.68 187.16 121.27 193.89 123.46 C 206.37 127.45 217.07 136.88 221.95 149.12 C 225.26 156.60 225.71 164.88 225.83 172.94 C 230.88 173.18 235.93 173.16 240.98 172.92 C 240.76 166.64 241.01 160.28 239.60 154.12 C 235.29 132.68 218.23 114.40 197.14 108.58 C 190.02 106.03 182.40 106.13 174.96 106.50 C 172.67 109.69 173.57 113.73 173.58 117.38 C 168.44 116.28 163.08 116.57 158.01 115.12 C 152.00 113.62 147.47 108.66 144.59 103.40 C 141.57 98.01 142.68 91.67 141.22 85.87 C 136.48 85.45 131.72 85.27 126.97 85.57 C 125.39 96.37 128.00 107.69 134.46 116.51 C 137.12 119.87 140.45 122.62 143.87 125.15 C 152.27 131.21 163.25 132.82 173.29 130.93 C 173.32 133.45 173.36 135.96 173.46 138.48 C 167.49 136.30 161.01 137.45 154.92 135.92 C 139.70 132.44 127.39 119.83 122.92 105.06 C 120.91 98.71 122.29 91.81 120.11 85.52 C 115.58 85.41 111.04 85.40 106.50 85.46 M 153.88 90.65 C 151.33 95.32 152.86 101.84 157.59 104.50 C 162.86 107.99 170.19 104.75 172.49 99.20 C 174.87 100.12 177.32 101.02 179.92 100.95 C 195.60 100.64 211.39 106.34 223.16 116.74 C 234.46 126.08 242.10 139.52 244.73 153.92 C 246.24 160.25 245.77 166.80 246.55 173.21 C 251.35 173.05 256.15 172.96 260.95 172.96 C 263.68 145.39 250.43 117.12 227.96 101.07 C 216.16 92.16 201.69 86.94 186.96 85.92 C 182.78 85.75 178.39 84.93 174.33 86.24 C 173.61 88.11 173.27 90.09 172.92 92.05 C 172.22 91.08 171.50 90.13 170.76 89.21 C 166.75 83.88 156.65 84.20 153.88 90.65 M 96.06 199.06 C 95.94 200.25 95.81 201.45 95.69 202.65 C 96.35 204.05 97.54 205.44 97.13 207.11 C 96.37 212.43 95.43 217.73 94.51 223.02 C 92.34 224.41 91.63 226.71 91.40 229.16 C 95.21 229.18 99.01 229.19 102.82 229.17 C 102.47 226.17 101.60 223.21 101.62 220.18 C 102.02 215.86 102.74 211.56 103.59 207.31 C 103.83 205.59 105.24 204.43 106.29 203.16 C 106.55 201.71 106.78 200.25 107.03 198.80 C 103.37 198.81 99.72 198.96 96.06 199.06 M 111.11 199.09 C 109.76 209.13 107.75 219.09 106.64 229.17 C 108.74 229.17 110.85 229.17 112.96 229.17 C 114.07 222.92 114.09 216.39 116.33 210.40 C 120.35 216.32 123.63 222.70 127.09 228.96 C 129.19 229.07 131.30 229.17 133.41 229.25 C 135.35 219.24 136.58 209.11 138.45 199.09 C 136.33 199.03 134.21 198.97 132.09 198.88 C 130.99 205.23 130.02 211.60 128.90 217.95 C 124.11 212.09 121.07 205.10 116.99 198.78 C 115.03 198.89 113.07 199.00 111.11 199.09 M 152.28 199.34 C 143.89 201.98 137.81 211.18 139.79 219.94 C 140.77 225.19 145.51 229.44 150.87 229.68 C 162.23 230.49 172.29 218.03 168.80 207.10 C 166.86 200.36 158.67 196.92 152.28 199.34 M 175.25 199.13 C 174.16 209.19 172.30 219.15 170.86 229.16 C 176.39 228.99 182.01 229.67 187.48 228.67 C 197.49 225.33 202.49 211.41 196.42 202.65 C 190.91 196.98 182.28 199.25 175.25 199.13 M 214.37 199.44 C 208.03 201.57 203.03 207.35 201.98 213.98 C 200.98 219.26 203.07 225.24 207.75 228.11 C 213.64 231.37 221.27 229.39 225.89 224.82 C 231.00 220.08 233.71 212.12 230.55 205.58 C 227.96 199.59 220.25 197.25 214.37 199.44 M 242.38 200.33 C 237.80 202.58 234.40 208.86 237.53 213.53 C 240.80 216.97 246.02 216.94 249.95 219.31 C 249.94 219.71 249.94 220.51 249.93 220.91 C 247.64 225.48 241.57 223.96 238.92 220.59 C 236.96 221.40 235.01 222.23 233.07 223.08 C 237.05 233.05 253.32 231.23 256.58 221.65 C 257.32 219.33 257.38 216.35 255.38 214.63 C 252.00 211.72 247.06 212.00 243.47 209.51 C 241.65 207.04 244.73 204.52 247.10 204.37 C 249.52 204.37 251.69 205.67 254.03 206.16 C 255.68 205.52 257.13 204.48 258.62 203.55 C 255.21 198.17 247.65 197.27 242.38 200.33 Z" />
<path fill="#60dea1" opacity="1.00" d=" M 45.92 85.95 C 46.62 84.99 47.38 84.07 48.22 83.24 C 51.20 84.22 53.40 86.65 55.81 88.54 C 47.83 99.29 42.09 111.53 37.16 123.92 C 27.54 149.79 26.32 178.40 31.78 205.33 C 28.73 206.14 25.63 206.72 22.50 207.06 C 19.85 195.93 18.87 184.45 18.51 173.04 C 18.72 142.16 28.31 111.35 45.92 85.95 Z" />
<path fill="#60dea1" opacity="1.00" d=" M 90.36 90.10 C 92.14 90.17 93.92 90.23 95.71 90.28 C 94.80 108.93 102.24 127.57 115.01 141.06 C 118.62 144.43 122.27 147.78 126.24 150.73 C 138.63 158.43 153.04 163.47 167.77 163.01 C 167.81 164.64 167.86 166.27 167.92 167.91 C 152.62 168.44 137.11 164.36 124.39 155.76 C 102.60 141.81 89.36 115.90 90.36 90.10 Z" />
<path fill="#60dea1" opacity="1.00" d=" M 110.94 90.47 C 112.57 90.33 114.20 90.18 115.84 90.03 C 116.27 102.51 119.86 115.32 128.09 124.95 C 137.93 136.35 153.09 142.46 168.02 142.40 C 168.02 143.96 168.01 145.52 168.02 147.09 C 142.47 149.38 117.27 129.99 112.57 104.86 C 111.50 100.13 111.14 95.30 110.94 90.47 Z" />
<path fill="#60dea1" opacity="1.00" d=" M 131.53 91.97 C 132.18 89.64 134.96 90.50 136.75 90.08 C 136.24 100.34 141.11 110.57 149.58 116.43 C 154.73 120.51 161.39 121.80 167.82 121.62 C 167.87 123.37 167.92 125.12 167.98 126.87 C 156.59 127.26 144.95 121.97 138.40 112.54 C 133.89 106.70 131.19 99.39 131.53 91.97 Z" />
<path fill="#60dea1" opacity="1.00" d=" M 158.33 93.10 C 160.06 89.51 164.62 90.43 167.47 92.07 C 168.07 95.07 168.40 99.62 164.59 100.54 C 160.28 102.11 156.09 97.09 158.33 93.10 Z" />
<path fill="#60dea1" opacity="1.00" d=" M 178.93 90.96 C 200.87 89.69 222.65 99.59 237.14 115.91 C 245.34 124.57 250.56 135.63 253.83 147.00 C 255.92 154.01 256.12 161.38 256.39 168.63 C 254.59 168.51 252.80 168.40 251.00 168.30 C 251.77 150.79 245.32 133.30 233.90 120.09 C 226.55 111.36 216.57 105.21 206.16 100.77 C 197.39 96.95 187.73 96.32 178.31 95.81 C 178.52 94.19 178.73 92.57 178.93 90.96 Z" />
<path fill="#60dea1" opacity="1.00" d=" M 178.37 111.64 C 192.15 110.65 206.03 115.55 216.39 124.61 C 229.61 134.91 236.17 152.09 235.44 168.60 C 233.82 168.53 232.21 168.47 230.59 168.42 C 230.71 156.15 226.88 143.64 218.71 134.33 C 209.18 122.29 193.46 116.23 178.35 116.36 C 178.36 114.78 178.37 113.21 178.37 111.64 Z" />
<path fill="#60dea1" opacity="1.00" d=" M 178.95 132.17 C 198.61 130.57 216.69 148.98 215.06 168.57 C 213.30 168.39 211.55 168.22 209.80 168.05 C 210.93 157.09 204.38 146.32 195.10 140.85 C 190.17 137.82 184.27 137.69 178.69 137.08 C 178.78 135.44 178.86 133.81 178.95 132.17 Z" />
<path fill="#60dea1" opacity="1.00" d=" M 314.08 141.00 C 317.20 140.54 320.35 140.20 323.50 140.05 C 325.18 150.30 326.92 160.58 326.61 171.01 C 327.61 194.13 322.27 217.29 312.46 238.18 C 303.74 256.65 291.84 273.84 276.44 287.37 C 267.40 295.16 258.12 303.05 247.06 307.84 C 246.02 305.15 244.91 302.49 243.77 299.84 C 248.45 295.72 254.11 292.97 258.99 289.11 C 272.49 279.35 283.75 266.76 293.16 253.08 C 300.69 240.89 307.28 227.95 311.32 214.16 C 317.60 194.09 317.82 172.67 315.29 151.95 C 314.74 148.32 314.24 144.67 314.08 141.00 Z" />
<path fill="#60dea1" opacity="1.00" d=" M 180.84 158.90 C 183.45 156.67 186.56 158.95 188.84 160.47 C 188.80 162.56 189.37 165.06 187.78 166.74 C 185.79 168.95 182.23 168.96 179.99 167.12 C 178.45 164.65 177.95 160.62 180.84 158.90 Z" />
<path fill="#60dea1" opacity="1.00" d=" M 153.28 205.24 C 156.82 204.11 161.33 205.66 162.51 209.41 C 165.52 216.81 156.93 226.17 149.41 222.51 C 142.90 218.12 146.26 207.17 153.28 205.24 Z" />
<path fill="#60dea1" opacity="1.00" d=" M 181.20 204.96 C 184.35 205.15 188.04 204.10 190.75 206.16 C 194.14 210.84 192.65 217.80 188.65 221.65 C 185.98 224.24 181.93 223.42 178.58 223.85 C 178.82 217.48 179.97 211.19 181.20 204.96 Z" />
<path fill="#60dea1" opacity="1.00" d=" M 215.29 205.42 C 218.77 203.99 223.44 205.36 224.72 209.13 C 228.31 216.63 219.06 226.64 211.45 222.30 C 205.30 217.86 208.66 207.55 215.29 205.42 Z" />
<path fill="#60dea1" opacity="1.00" d=" M 7.17 210.76 C 9.88 210.38 12.58 209.96 15.28 209.52 C 20.92 233.77 32.08 256.76 48.09 275.87 C 67.97 300.49 95.63 318.84 125.94 327.87 C 163.94 339.52 206.30 336.59 242.12 319.26 C 265.10 308.39 285.02 291.65 300.97 271.95 C 303.45 267.98 308.89 271.44 309.82 274.95 C 305.96 281.79 300.50 287.53 295.07 293.14 C 286.75 301.89 277.43 309.75 267.21 316.19 C 250.87 327.43 232.27 335.38 212.87 339.50 C 183.47 347.66 151.93 345.93 122.83 337.33 C 98.59 329.79 75.96 316.91 57.24 299.74 C 46.06 290.16 36.97 278.42 28.86 266.21 C 19.74 252.39 13.10 237.03 8.46 221.17 C 7.41 217.80 7.25 214.26 7.17 210.76 Z" />
<path fill="#60dea1" opacity="1.00" d=" M 40.01 249.58 C 42.57 248.53 45.18 247.61 47.83 246.83 C 55.79 257.84 63.72 268.98 73.53 278.45 C 83.53 287.69 94.81 295.48 106.83 301.87 C 130.99 314.09 158.56 319.55 185.54 317.23 C 192.10 316.42 198.63 315.29 205.25 315.15 C 205.63 317.98 206.05 320.79 206.49 323.61 C 190.08 327.67 172.93 328.60 156.16 326.50 C 121.01 322.92 87.50 306.43 62.74 281.30 C 54.24 271.51 44.38 262.09 40.01 249.58 Z" />
</g>
<g id="#010b01ff">
<path fill="#010b01" opacity="1.00" d=" M 85.44 85.46 C 90.45 85.52 95.55 84.86 100.47 86.18 C 100.93 94.12 100.46 102.29 102.99 109.95 C 107.56 126.10 118.39 140.61 133.08 148.88 C 141.17 153.92 150.57 156.41 159.97 157.47 C 164.81 157.60 169.73 157.75 174.33 159.47 C 176.18 155.86 179.67 152.59 183.98 152.82 C 188.95 153.53 194.57 157.29 194.13 162.91 C 194.43 166.68 192.00 169.70 189.59 172.27 C 186.10 172.78 182.28 173.95 178.92 172.32 C 176.61 170.82 175.27 168.29 173.66 166.14 C 173.33 168.26 172.95 170.38 172.57 172.49 C 165.25 173.90 157.84 172.76 150.57 171.67 C 141.73 170.25 133.53 166.37 125.61 162.37 C 106.82 151.77 92.89 133.13 87.73 112.22 C 85.83 103.44 85.15 94.43 85.44 85.46 M 90.36 90.10 C 89.36 115.90 102.60 141.81 124.39 155.76 C 137.11 164.36 152.62 168.44 167.92 167.91 C 167.86 166.27 167.81 164.64 167.77 163.01 C 153.04 163.47 138.63 158.43 126.24 150.73 C 122.27 147.78 118.62 144.43 115.01 141.06 C 102.24 127.57 94.80 108.93 95.71 90.28 C 93.92 90.23 92.14 90.17 90.36 90.10 M 180.84 158.90 C 177.95 160.62 178.45 164.65 179.99 167.12 C 182.23 168.96 185.79 168.95 187.78 166.74 C 189.37 165.06 188.80 162.56 188.84 160.47 C 186.56 158.95 183.45 156.67 180.84 158.90 Z" />
<path fill="#010b01" opacity="1.00" d=" M 106.50 85.46 C 111.04 85.40 115.58 85.41 120.11 85.52 C 122.29 91.81 120.91 98.71 122.92 105.06 C 127.39 119.83 139.70 132.44 154.92 135.92 C 161.01 137.45 167.49 136.30 173.46 138.48 C 173.36 135.96 173.32 133.45 173.29 130.93 C 163.25 132.82 152.27 131.21 143.87 125.15 C 140.45 122.62 137.12 119.87 134.46 116.51 C 128.00 107.69 125.39 96.37 126.97 85.57 C 131.72 85.27 136.48 85.45 141.22 85.87 C 142.68 91.67 141.57 98.01 144.59 103.40 C 147.47 108.66 152.00 113.62 158.01 115.12 C 163.08 116.57 168.44 116.28 173.58 117.38 C 173.57 113.73 172.67 109.69 174.96 106.50 C 182.40 106.13 190.02 106.03 197.14 108.58 C 218.23 114.40 235.29 132.68 239.60 154.12 C 241.01 160.28 240.76 166.64 240.98 172.92 C 235.93 173.16 230.88 173.18 225.83 172.94 C 225.71 164.88 225.26 156.60 221.95 149.12 C 217.07 136.88 206.37 127.45 193.89 123.46 C 187.16 121.27 179.88 122.68 173.16 120.37 C 173.18 122.92 173.16 125.46 173.09 128.00 C 185.00 124.78 197.79 129.14 207.04 136.84 C 217.11 145.68 221.83 159.72 219.73 172.91 C 214.83 173.13 209.94 173.22 205.04 173.20 C 204.93 167.28 204.97 161.12 202.12 155.74 C 199.78 149.86 194.42 145.78 188.61 143.68 C 183.58 142.24 178.30 142.21 173.17 141.30 C 173.10 144.86 173.00 148.41 172.95 151.97 C 162.38 153.57 151.33 152.04 141.72 147.32 C 118.21 137.43 102.39 110.90 106.50 85.46 M 110.94 90.47 C 111.14 95.30 111.50 100.13 112.57 104.86 C 117.27 129.99 142.47 149.38 168.02 147.09 C 168.01 145.52 168.02 143.96 168.02 142.40 C 153.09 142.46 137.93 136.35 128.09 124.95 C 119.86 115.32 116.27 102.51 115.84 90.03 C 114.20 90.18 112.57 90.33 110.94 90.47 M 131.53 91.97 C 131.19 99.39 133.89 106.70 138.40 112.54 C 144.95 121.97 156.59 127.26 167.98 126.87 C 167.92 125.12 167.87 123.37 167.82 121.62 C 161.39 121.80 154.73 120.51 149.58 116.43 C 141.11 110.57 136.24 100.34 136.75 90.08 C 134.96 90.50 132.18 89.64 131.53 91.97 M 178.37 111.64 C 178.37 113.21 178.36 114.78 178.35 116.36 C 193.46 116.23 209.18 122.29 218.71 134.33 C 226.88 143.64 230.71 156.15 230.59 168.42 C 232.21 168.47 233.82 168.53 235.44 168.60 C 236.17 152.09 229.61 134.91 216.39 124.61 C 206.03 115.55 192.15 110.65 178.37 111.64 M 178.95 132.17 C 178.86 133.81 178.78 135.44 178.69 137.08 C 184.27 137.69 190.17 137.82 195.10 140.85 C 204.38 146.32 210.93 157.09 209.80 168.05 C 211.55 168.22 213.30 168.39 215.06 168.57 C 216.69 148.98 198.61 130.57 178.95 132.17 Z" />
<path fill="#010b01" opacity="1.00" d=" M 153.88 90.65 C 156.65 84.20 166.75 83.88 170.76 89.21 C 171.50 90.13 172.22 91.08 172.92 92.05 C 173.27 90.09 173.61 88.11 174.33 86.24 C 178.39 84.93 182.78 85.75 186.96 85.92 C 201.69 86.94 216.16 92.16 227.96 101.07 C 250.43 117.12 263.68 145.39 260.95 172.96 C 256.15 172.96 251.35 173.05 246.55 173.21 C 245.77 166.80 246.24 160.25 244.73 153.92 C 242.10 139.52 234.46 126.08 223.16 116.74 C 211.39 106.34 195.60 100.64 179.92 100.95 C 177.32 101.02 174.87 100.12 172.49 99.20 C 170.19 104.75 162.86 107.99 157.59 104.50 C 152.86 101.84 151.33 95.32 153.88 90.65 M 158.33 93.10 C 156.09 97.09 160.28 102.11 164.59 100.54 C 168.40 99.62 168.07 95.07 167.47 92.07 C 164.62 90.43 160.06 89.51 158.33 93.10 M 178.93 90.96 C 178.73 92.57 178.52 94.19 178.31 95.81 C 187.73 96.32 197.39 96.95 206.16 100.77 C 216.57 105.21 226.55 111.36 233.90 120.09 C 245.32 133.30 251.77 150.79 251.00 168.30 C 252.80 168.40 254.59 168.51 256.39 168.63 C 256.12 161.38 255.92 154.01 253.83 147.00 C 250.56 135.63 245.34 124.57 237.14 115.91 C 222.65 99.59 200.87 89.69 178.93 90.96 Z" />
<path fill="#010b01" opacity="1.00" d=" M 96.06 199.06 C 99.72 198.96 103.37 198.81 107.03 198.80 C 106.78 200.25 106.55 201.71 106.29 203.16 C 105.24 204.43 103.83 205.59 103.59 207.31 C 102.74 211.56 102.02 215.86 101.62 220.18 C 101.60 223.21 102.47 226.17 102.82 229.17 C 99.01 229.19 95.21 229.18 91.40 229.16 C 91.63 226.71 92.34 224.41 94.51 223.02 C 95.43 217.73 96.37 212.43 97.13 207.11 C 97.54 205.44 96.35 204.05 95.69 202.65 C 95.81 201.45 95.94 200.25 96.06 199.06 Z" />
<path fill="#010b01" opacity="1.00" d=" M 111.11 199.09 C 113.07 199.00 115.03 198.89 116.99 198.78 C 121.07 205.10 124.11 212.09 128.90 217.95 C 130.02 211.60 130.99 205.23 132.09 198.88 C 134.21 198.97 136.33 199.03 138.45 199.09 C 136.58 209.11 135.35 219.24 133.41 229.25 C 131.30 229.17 129.19 229.07 127.09 228.96 C 123.63 222.70 120.35 216.32 116.33 210.40 C 114.09 216.39 114.07 222.92 112.96 229.17 C 110.85 229.17 108.74 229.17 106.64 229.17 C 107.75 219.09 109.76 209.13 111.11 199.09 Z" />
<path fill="#010b01" opacity="1.00" d=" M 152.28 199.34 C 158.67 196.92 166.86 200.36 168.80 207.10 C 172.29 218.03 162.23 230.49 150.87 229.68 C 145.51 229.44 140.77 225.19 139.79 219.94 C 137.81 211.18 143.89 201.98 152.28 199.34 M 153.28 205.24 C 146.26 207.17 142.90 218.12 149.41 222.51 C 156.93 226.17 165.52 216.81 162.51 209.41 C 161.33 205.66 156.82 204.11 153.28 205.24 Z" />
<path fill="#010b01" opacity="1.00" d=" M 175.25 199.13 C 182.28 199.25 190.91 196.98 196.42 202.65 C 202.49 211.41 197.49 225.33 187.48 228.67 C 182.01 229.67 176.39 228.99 170.86 229.16 C 172.30 219.15 174.16 209.19 175.25 199.13 M 181.20 204.96 C 179.97 211.19 178.82 217.48 178.58 223.85 C 181.93 223.42 185.98 224.24 188.65 221.65 C 192.65 217.80 194.14 210.84 190.75 206.16 C 188.04 204.10 184.35 205.15 181.20 204.96 Z" />
<path fill="#010b01" opacity="1.00" d=" M 214.37 199.44 C 220.25 197.25 227.96 199.59 230.55 205.58 C 233.71 212.12 231.00 220.08 225.89 224.82 C 221.27 229.39 213.64 231.37 207.75 228.11 C 203.07 225.24 200.98 219.26 201.98 213.98 C 203.03 207.35 208.03 201.57 214.37 199.44 M 215.29 205.42 C 208.66 207.55 205.30 217.86 211.45 222.30 C 219.06 226.64 228.31 216.63 224.72 209.13 C 223.44 205.36 218.77 203.99 215.29 205.42 Z" />
<path fill="#010b01" opacity="1.00" d=" M 242.38 200.33 C 247.65 197.27 255.21 198.17 258.62 203.55 C 257.13 204.48 255.68 205.52 254.03 206.16 C 251.69 205.67 249.52 204.37 247.10 204.37 C 244.73 204.52 241.65 207.04 243.47 209.51 C 247.06 212.00 252.00 211.72 255.38 214.63 C 257.38 216.35 257.32 219.33 256.58 221.65 C 253.32 231.23 237.05 233.05 233.07 223.08 C 235.01 222.23 236.96 221.40 238.92 220.59 C 241.57 223.96 247.64 225.48 249.93 220.91 C 249.94 220.51 249.94 219.71 249.95 219.31 C 246.02 216.94 240.80 216.97 237.53 213.53 C 234.40 208.86 237.80 202.58 242.38 200.33 Z" />
</g>
</svg>
